<svg xmlns="http://www.w3.org/2000/svg" viewBox="0 0 208.4 32.65"><defs><style>.cls-1{fill:#fff;}.cls-2{fill:#43bee5;}.cls-3{fill:#f40058;}</style></defs><g id="Layer_2" data-name="Layer 2"><g id="Layer_1-2" data-name="Layer 1"><path class="cls-1" d="M85.23,4.42V15H83V4.42Z"/><path class="cls-1" d="M88.94,10.41V15h-2.2V7.07h2.1V8.46h.09a2.25,2.25,0,0,1,.88-1.09A2.73,2.73,0,0,1,91.32,7a2.8,2.8,0,0,1,1.44.36,2.49,2.49,0,0,1,.95,1,3.47,3.47,0,0,1,.34,1.6v5h-2.2V10.34a1.57,1.57,0,0,0-.37-1.14,1.36,1.36,0,0,0-1-.41,1.55,1.55,0,0,0-.78.19,1.37,1.37,0,0,0-.53.56A1.93,1.93,0,0,0,88.94,10.41Z"/><path class="cls-1" d="M99.71,7.07V8.72H94.93V7.07ZM96,5.17h2.19v7.39a1,1,0,0,0,.1.47.49.49,0,0,0,.26.23.94.94,0,0,0,.39.07l.31,0,.24,0,.34,1.64-.46.12a4.64,4.64,0,0,1-.73.08,3.34,3.34,0,0,1-1.39-.21,1.93,1.93,0,0,1-.93-.75A2.25,2.25,0,0,1,96,12.85Z"/><path class="cls-1" d="M100.85,15V7.07H103V8.45h.08a2,2,0,0,1,.73-1.12A1.93,1.93,0,0,1,105,7l.36,0,.34.06V9a2.78,2.78,0,0,0-.43-.08,3,3,0,0,0-.5,0,1.78,1.78,0,0,0-.87.21,1.59,1.59,0,0,0-.6.58,1.72,1.72,0,0,0-.22.86V15Z"/><path class="cls-1" d="M109.71,15.15a3.94,3.94,0,0,1-2.08-.52,3.45,3.45,0,0,1-1.35-1.43,4.56,4.56,0,0,1-.48-2.14,4.6,4.6,0,0,1,.48-2.15,3.45,3.45,0,0,1,1.35-1.43,4.4,4.4,0,0,1,4.15,0,3.39,3.39,0,0,1,1.35,1.43,4.6,4.6,0,0,1,.48,2.15,4.56,4.56,0,0,1-.48,2.14,3.39,3.39,0,0,1-1.35,1.43A3.93,3.93,0,0,1,109.71,15.15Zm0-1.7a1.35,1.35,0,0,0,.91-.32,1.91,1.91,0,0,0,.55-.85,3.61,3.61,0,0,0,.19-1.23,3.63,3.63,0,0,0-.19-1.24,1.94,1.94,0,0,0-.55-.86,1.34,1.34,0,0,0-.91-.31,1.39,1.39,0,0,0-.93.31,1.87,1.87,0,0,0-.56.86,3.63,3.63,0,0,0-.19,1.24,3.61,3.61,0,0,0,.19,1.23,1.84,1.84,0,0,0,.56.85A1.4,1.4,0,0,0,109.72,13.45Z"/><path class="cls-1" d="M117.67,15.12a3,3,0,0,1-1.63-.46,3.31,3.31,0,0,1-1.16-1.38,5.36,5.36,0,0,1-.42-2.24,5.11,5.11,0,0,1,.44-2.27,3.15,3.15,0,0,1,1.17-1.36,3,3,0,0,1,1.6-.45,2.46,2.46,0,0,1,1.11.23,2.15,2.15,0,0,1,.72.55,2.59,2.59,0,0,1,.42.66H120v-4h2.2V15H120V13.72h-.1a2.75,2.75,0,0,1-.43.66,2.26,2.26,0,0,1-.73.53A2.55,2.55,0,0,1,117.67,15.12Zm.7-1.75a1.35,1.35,0,0,0,.9-.29,1.78,1.78,0,0,0,.57-.82A3.52,3.52,0,0,0,120,11a3.52,3.52,0,0,0-.2-1.23,1.72,1.72,0,0,0-.57-.8,1.54,1.54,0,0,0-1.81,0,1.75,1.75,0,0,0-.57.81A3.7,3.7,0,0,0,116.7,11a3.51,3.51,0,0,0,.2,1.22,1.85,1.85,0,0,0,.56.83A1.46,1.46,0,0,0,118.37,13.37Z"/><path class="cls-1" d="M128.78,11.62V7.07H131V15h-2.11V13.55h-.08a2.31,2.31,0,0,1-.9,1.12,2.54,2.54,0,0,1-1.51.43,2.68,2.68,0,0,1-1.4-.36,2.53,2.53,0,0,1-.94-1,3.47,3.47,0,0,1-.34-1.6v-5h2.19v4.65a1.62,1.62,0,0,0,.38,1.11,1.3,1.3,0,0,0,1,.41,1.59,1.59,0,0,0,.74-.18,1.48,1.48,0,0,0,.56-.55A1.75,1.75,0,0,0,128.78,11.62Z"/><path class="cls-1" d="M136,15.15a4,4,0,0,1-2.1-.52,3.51,3.51,0,0,1-1.34-1.44,4.7,4.7,0,0,1-.47-2.13,4.59,4.59,0,0,1,.48-2.14,3.51,3.51,0,0,1,1.34-1.44A3.94,3.94,0,0,1,136,7a4.12,4.12,0,0,1,1.81.38,3.05,3.05,0,0,1,1.24,1.06,3.09,3.09,0,0,1,.5,1.6h-2.08A1.61,1.61,0,0,0,137,9a1.36,1.36,0,0,0-1-.36,1.49,1.49,0,0,0-.89.27,1.83,1.83,0,0,0-.59.8,3.5,3.5,0,0,0-.21,1.28,3.48,3.48,0,0,0,.21,1.29,1.78,1.78,0,0,0,.59.81,1.43,1.43,0,0,0,.89.28,1.39,1.39,0,0,0,.68-.16,1.27,1.27,0,0,0,.5-.45,1.72,1.72,0,0,0,.26-.71h2.08a3.28,3.28,0,0,1-.5,1.6,3,3,0,0,1-1.21,1.07A4,4,0,0,1,136,15.15Z"/><path class="cls-1" d="M144.91,7.07V8.72h-4.78V7.07Zm-3.69-1.9h2.2v7.39a1,1,0,0,0,.09.47.49.49,0,0,0,.26.23.94.94,0,0,0,.39.07,1.63,1.63,0,0,0,.31,0l.24,0,.34,1.64-.46.12a4.64,4.64,0,0,1-.73.08,3.36,3.36,0,0,1-1.39-.21,1.93,1.93,0,0,1-.93-.75,2.25,2.25,0,0,1-.32-1.29Z"/><path class="cls-1" d="M147.16,6a1.25,1.25,0,0,1-.85-.32,1.05,1.05,0,0,1-.35-.79,1,1,0,0,1,.35-.78,1.2,1.2,0,0,1,.84-.33,1.25,1.25,0,0,1,.85.32,1,1,0,0,1,.34.79,1.06,1.06,0,0,1-.34.79A1.24,1.24,0,0,1,147.16,6Zm-1.11,9V7.07h2.2V15Z"/><path class="cls-1" d="M153.29,15.15a4,4,0,0,1-2.08-.52,3.51,3.51,0,0,1-1.35-1.43,4.69,4.69,0,0,1-.47-2.14,4.73,4.73,0,0,1,.47-2.15,3.51,3.51,0,0,1,1.35-1.43,4.42,4.42,0,0,1,4.16,0,3.51,3.51,0,0,1,1.35,1.43,4.6,4.6,0,0,1,.47,2.15,4.56,4.56,0,0,1-.47,2.14,3.51,3.51,0,0,1-1.35,1.43A4,4,0,0,1,153.29,15.15Zm0-1.7a1.37,1.37,0,0,0,.92-.32,2,2,0,0,0,.55-.85,3.61,3.61,0,0,0,.19-1.23,3.63,3.63,0,0,0-.19-1.24,2,2,0,0,0-.55-.86,1.52,1.52,0,0,0-1.84,0,2,2,0,0,0-.57.86,3.9,3.9,0,0,0-.18,1.24,3.88,3.88,0,0,0,.18,1.23,1.94,1.94,0,0,0,.57.85A1.37,1.37,0,0,0,153.3,13.45Z"/><path class="cls-1" d="M160.54,10.41V15h-2.2V7.07h2.09V8.46h.1a2.19,2.19,0,0,1,.88-1.09,2.67,2.67,0,0,1,1.5-.41,2.8,2.8,0,0,1,1.44.36,2.52,2.52,0,0,1,1,1,3.6,3.6,0,0,1,.34,1.6v5h-2.2V10.34a1.61,1.61,0,0,0-.37-1.14,1.36,1.36,0,0,0-1-.41,1.5,1.5,0,0,0-.78.19,1.31,1.31,0,0,0-.53.56A1.93,1.93,0,0,0,160.54,10.41Z"/><path class="cls-1" d="M174.38,7.07V8.72h-4.77V7.07Zm-3.69-1.9h2.2v7.39A1,1,0,0,0,173,13a.52.52,0,0,0,.26.23,1,1,0,0,0,.39.07,1.55,1.55,0,0,0,.31,0l.24,0,.35,1.64-.47.12a4.51,4.51,0,0,1-.72.08,3.39,3.39,0,0,1-1.4-.21,2,2,0,0,1-.92-.75,2.33,2.33,0,0,1-.33-1.29Z"/><path class="cls-1" d="M179,15.15a4,4,0,0,1-2.08-.52,3.51,3.51,0,0,1-1.35-1.43,4.69,4.69,0,0,1-.47-2.14,4.73,4.73,0,0,1,.47-2.15,3.51,3.51,0,0,1,1.35-1.43,4.42,4.42,0,0,1,4.16,0,3.51,3.51,0,0,1,1.35,1.43,4.6,4.6,0,0,1,.47,2.15,4.56,4.56,0,0,1-.47,2.14,3.51,3.51,0,0,1-1.35,1.43A4,4,0,0,1,179,15.15Zm0-1.7a1.37,1.37,0,0,0,.92-.32,2,2,0,0,0,.55-.85,3.61,3.61,0,0,0,.19-1.23,3.63,3.63,0,0,0-.19-1.24A2,2,0,0,0,180,9a1.37,1.37,0,0,0-.92-.31,1.35,1.35,0,0,0-.92.31,2,2,0,0,0-.57.86,4.11,4.11,0,0,0,0,2.47,1.94,1.94,0,0,0,.57.85A1.36,1.36,0,0,0,179,13.45Z"/><path class="cls-1" d="M85.38,29.56,82.35,19h2.44l1.75,7.34h.09L88.56,19h2.09l1.93,7.36h.09L94.42,19h2.44l-3,10.57H91.66l-2-6.91h-.09l-2,6.91Z"/><path class="cls-1" d="M100.48,29.71a4.18,4.18,0,0,1-2.1-.49A3.45,3.45,0,0,1,97,27.8a4.6,4.6,0,0,1-.47-2.17A4.56,4.56,0,0,1,97,23.49,3.54,3.54,0,0,1,98.36,22a3.92,3.92,0,0,1,2-.51,4.11,4.11,0,0,1,1.46.25,3.25,3.25,0,0,1,2,2,5,5,0,0,1,.29,1.76v.61h-6.7V24.8h4.63a1.7,1.7,0,0,0-.21-.85,1.56,1.56,0,0,0-.57-.57,1.64,1.64,0,0,0-.84-.21,1.73,1.73,0,0,0-.89.23,1.67,1.67,0,0,0-.6.61,1.8,1.8,0,0,0-.22.86v1.29a2.14,2.14,0,0,0,.22,1,1.47,1.47,0,0,0,.62.66,1.83,1.83,0,0,0,1,.23,2.11,2.11,0,0,0,.68-.1,1.44,1.44,0,0,0,.52-.31,1.5,1.5,0,0,0,.33-.51l2,.14a2.76,2.76,0,0,1-.63,1.28,3.21,3.21,0,0,1-1.23.84A4.65,4.65,0,0,1,100.48,29.71Z"/><path class="cls-1" d="M105.3,29.56V19h2.2v4h.07a2.85,2.85,0,0,1,.42-.65,2.17,2.17,0,0,1,.72-.56,2.47,2.47,0,0,1,1.11-.22,3,3,0,0,1,1.6.45,3.18,3.18,0,0,1,1.18,1.36,5.22,5.22,0,0,1,.44,2.27,5.28,5.28,0,0,1-.43,2.23,3.12,3.12,0,0,1-1.16,1.38,3,3,0,0,1-1.63.47,2.55,2.55,0,0,1-1.09-.21,2.14,2.14,0,0,1-.73-.54,2.52,2.52,0,0,1-.43-.65h-.1v1.27Zm2.16-4a3.53,3.53,0,0,0,.19,1.23,1.84,1.84,0,0,0,.57.82,1.45,1.45,0,0,0,.9.29,1.4,1.4,0,0,0,.91-.3,1.84,1.84,0,0,0,.57-.82,3.81,3.81,0,0,0,.19-1.22,3.45,3.45,0,0,0-.19-1.21,1.9,1.9,0,0,0-.56-.82,1.49,1.49,0,0,0-.92-.29,1.4,1.4,0,0,0-.9.28,1.75,1.75,0,0,0-.57.81A3.46,3.46,0,0,0,107.46,25.6Z"/><path class="cls-1" d="M116.92,20.83V19h8.69v1.84h-3.24v8.73h-2.21V20.83Z"/><path class="cls-1" d="M129.17,29.71a4.25,4.25,0,0,1-2.11-.49,3.42,3.42,0,0,1-1.35-1.42,5.08,5.08,0,0,1,0-4.31A3.48,3.48,0,0,1,127.05,22a3.9,3.9,0,0,1,2-.51,4.11,4.11,0,0,1,1.46.25,3.44,3.44,0,0,1,1.19.75,3.35,3.35,0,0,1,.79,1.26,5,5,0,0,1,.28,1.76v.61h-6.69V24.8h4.62a1.7,1.7,0,0,0-.2-.85,1.56,1.56,0,0,0-.57-.57,1.7,1.7,0,0,0-.85-.21,1.72,1.72,0,0,0-.88.23,1.6,1.6,0,0,0-.6.61,1.69,1.69,0,0,0-.22.86v1.29a2.14,2.14,0,0,0,.22,1,1.47,1.47,0,0,0,.62.66,1.81,1.81,0,0,0,.95.23,2,2,0,0,0,.67-.1,1.29,1.29,0,0,0,.52-.31,1.25,1.25,0,0,0,.33-.51l2,.14a2.86,2.86,0,0,1-.63,1.28,3.21,3.21,0,0,1-1.23.84A4.65,4.65,0,0,1,129.17,29.71Z"/><path class="cls-1" d="M137.53,29.71a4.07,4.07,0,0,1-2.09-.51,3.41,3.41,0,0,1-1.34-1.45,4.51,4.51,0,0,1-.47-2.12,4.69,4.69,0,0,1,.47-2.14,3.42,3.42,0,0,1,1.35-1.44,3.93,3.93,0,0,1,2.07-.52,4,4,0,0,1,1.82.38A3,3,0,0,1,140.57,23a3.15,3.15,0,0,1,.5,1.6H139a1.67,1.67,0,0,0-.46-.95,1.33,1.33,0,0,0-1-.37,1.43,1.43,0,0,0-.89.28,1.7,1.7,0,0,0-.59.8,3.26,3.26,0,0,0-.22,1.28,3.56,3.56,0,0,0,.21,1.29,1.86,1.86,0,0,0,.59.81,1.56,1.56,0,0,0,1.58.12,1.34,1.34,0,0,0,.5-.45,1.76,1.76,0,0,0,.26-.72h2.07a3.24,3.24,0,0,1-.49,1.6,3,3,0,0,1-1.22,1.08A4,4,0,0,1,137.53,29.71Z"/><path class="cls-1" d="M144.39,25v4.58H142.2V19h2.13v4h.1a2.19,2.19,0,0,1,.86-1.1,2.63,2.63,0,0,1,1.51-.4,2.8,2.8,0,0,1,1.44.36,2.49,2.49,0,0,1,1,1,3.47,3.47,0,0,1,.34,1.6v5h-2.2V24.9a1.65,1.65,0,0,0-.37-1.14,1.36,1.36,0,0,0-1.05-.4,1.57,1.57,0,0,0-.79.19,1.3,1.3,0,0,0-.54.55A2,2,0,0,0,144.39,25Z"/><path class="cls-1" d="M153.18,25v4.58H151V21.63h2.1V23h.09a2.22,2.22,0,0,1,.88-1.1,2.67,2.67,0,0,1,1.5-.4,2.8,2.8,0,0,1,1.44.36,2.46,2.46,0,0,1,1,1,3.58,3.58,0,0,1,.34,1.59v5h-2.2V24.9a1.6,1.6,0,0,0-.37-1.13,1.32,1.32,0,0,0-1-.41,1.5,1.5,0,0,0-.78.19,1.28,1.28,0,0,0-.53.55A2,2,0,0,0,153.18,25Z"/><path class="cls-1" d="M163.31,29.71a4.06,4.06,0,0,1-2.08-.51,3.51,3.51,0,0,1-1.35-1.43,5.13,5.13,0,0,1,0-4.29A3.48,3.48,0,0,1,161.23,22a4.5,4.5,0,0,1,4.16,0,3.48,3.48,0,0,1,1.35,1.44,5.13,5.13,0,0,1,0,4.29,3.51,3.51,0,0,1-1.35,1.43A4.08,4.08,0,0,1,163.31,29.71Zm0-1.7a1.34,1.34,0,0,0,.91-.31,1.92,1.92,0,0,0,.56-.85,4,4,0,0,0,.19-1.24,3.87,3.87,0,0,0-.19-1.23,2,2,0,0,0-.56-.86,1.34,1.34,0,0,0-.91-.31,1.39,1.39,0,0,0-.93.31,2,2,0,0,0-.56.86,3.61,3.61,0,0,0-.19,1.23,3.71,3.71,0,0,0,.19,1.24,1.92,1.92,0,0,0,.56.85A1.39,1.39,0,0,0,163.32,28Z"/><path class="cls-1" d="M170.55,19V29.56h-2.19V19Z"/><path class="cls-1" d="M175.6,29.71a4.08,4.08,0,0,1-2.08-.51,3.51,3.51,0,0,1-1.35-1.43,5.13,5.13,0,0,1,0-4.29A3.48,3.48,0,0,1,173.52,22a4.5,4.5,0,0,1,4.16,0A3.48,3.48,0,0,1,179,23.48a5.13,5.13,0,0,1,0,4.29,3.51,3.51,0,0,1-1.35,1.43A4.08,4.08,0,0,1,175.6,29.71Zm0-1.7a1.32,1.32,0,0,0,.91-.31,1.92,1.92,0,0,0,.56-.85,3.71,3.71,0,0,0,.19-1.24,3.61,3.61,0,0,0-.19-1.23,2,2,0,0,0-.56-.86,1.32,1.32,0,0,0-.91-.31,1.39,1.39,0,0,0-.93.31,2,2,0,0,0-.56.86,3.87,3.87,0,0,0-.19,1.23,4,4,0,0,0,.19,1.24,1.92,1.92,0,0,0,.56.85A1.39,1.39,0,0,0,175.61,28Z"/><path class="cls-1" d="M184.22,32.65a5.24,5.24,0,0,1-1.83-.29,3,3,0,0,1-1.21-.78,2.28,2.28,0,0,1-.58-1.09l2-.27a1.34,1.34,0,0,0,.29.41,1.56,1.56,0,0,0,.54.31,2.15,2.15,0,0,0,.81.13,2,2,0,0,0,1.19-.34,1.3,1.3,0,0,0,.46-1.12V28.16h-.09a2.24,2.24,0,0,1-.43.62,2.11,2.11,0,0,1-.75.48,2.9,2.9,0,0,1-1.08.19A3.16,3.16,0,0,1,182,29a3,3,0,0,1-1.17-1.27,5,5,0,0,1-.43-2.18,5.15,5.15,0,0,1,.44-2.25A3.12,3.12,0,0,1,182,22a3,3,0,0,1,1.6-.45,2.48,2.48,0,0,1,1.12.22,2.17,2.17,0,0,1,.72.56,2.92,2.92,0,0,1,.43.65h.08V21.63h2.19v8a2.73,2.73,0,0,1-.5,1.66,3.1,3.1,0,0,1-1.37,1A5.64,5.64,0,0,1,184.22,32.65Zm.05-4.85a1.5,1.5,0,0,0,.9-.27,1.7,1.7,0,0,0,.56-.76,3.14,3.14,0,0,0,.2-1.2,3.42,3.42,0,0,0-.19-1.21,1.77,1.77,0,0,0-.57-.8,1.44,1.44,0,0,0-.9-.28,1.47,1.47,0,0,0-.92.29,1.74,1.74,0,0,0-.56.81,3.34,3.34,0,0,0-.19,1.19,3.3,3.3,0,0,0,.19,1.19,1.7,1.7,0,0,0,.56.76A1.52,1.52,0,0,0,184.27,27.8Z"/><path class="cls-1" d="M190.67,20.61a1.17,1.17,0,0,1-.84-.33,1,1,0,0,1-.35-.78,1,1,0,0,1,.35-.79,1.16,1.16,0,0,1,.83-.33,1.19,1.19,0,0,1,.85.33,1.06,1.06,0,0,1,0,1.57A1.17,1.17,0,0,1,190.67,20.61Zm-1.11,9V21.63h2.2v7.93Z"/><path class="cls-1" d="M196.84,29.71a4.25,4.25,0,0,1-2.11-.49,3.42,3.42,0,0,1-1.35-1.42,5.08,5.08,0,0,1,0-4.31A3.48,3.48,0,0,1,194.72,22a3.9,3.9,0,0,1,2-.51,4.11,4.11,0,0,1,1.46.25,3.44,3.44,0,0,1,1.19.75,3.35,3.35,0,0,1,.79,1.26,5,5,0,0,1,.28,1.76v.61h-6.69V24.8h4.62a1.7,1.7,0,0,0-.2-.85,1.56,1.56,0,0,0-.57-.57,1.7,1.7,0,0,0-.85-.21,1.72,1.72,0,0,0-.88.23,1.6,1.6,0,0,0-.6.61,1.69,1.69,0,0,0-.22.86v1.29a2.14,2.14,0,0,0,.22,1,1.47,1.47,0,0,0,.62.66,1.81,1.81,0,0,0,1,.23,2,2,0,0,0,.67-.1,1.29,1.29,0,0,0,.52-.31,1.25,1.25,0,0,0,.33-.51l2,.14a2.86,2.86,0,0,1-.63,1.28,3.21,3.21,0,0,1-1.23.84A4.65,4.65,0,0,1,196.84,29.71Z"/><path class="cls-1" d="M208.22,23.89l-2,.13a1,1,0,0,0-.22-.47,1.22,1.22,0,0,0-.45-.34,1.6,1.6,0,0,0-.65-.12,1.7,1.7,0,0,0-.87.21.65.65,0,0,0-.35.57.62.62,0,0,0,.23.48,1.8,1.8,0,0,0,.78.32l1.43.29a3.48,3.48,0,0,1,1.73.76,1.79,1.79,0,0,1,.57,1.38,2.2,2.2,0,0,1-.46,1.37,3,3,0,0,1-1.25.92,4.73,4.73,0,0,1-1.82.32,4.27,4.27,0,0,1-2.51-.65,2.53,2.53,0,0,1-1.09-1.8l2.16-.11a1.1,1.1,0,0,0,.48.73,2,2,0,0,0,1.89,0,.68.68,0,0,0,.36-.58.63.63,0,0,0-.25-.5,1.74,1.74,0,0,0-.77-.29l-1.37-.28a3.22,3.22,0,0,1-1.72-.8,2,2,0,0,1-.57-1.46,2.18,2.18,0,0,1,.41-1.32,2.63,2.63,0,0,1,1.18-.85,4.75,4.75,0,0,1,1.77-.3,4,4,0,0,1,2.37.63A2.51,2.51,0,0,1,208.22,23.89Z"/><path class="cls-2" d="M18.6,28.65a13.19,13.19,0,0,1-3.09,1.06,13.75,13.75,0,0,1-2.65.28,8.63,8.63,0,0,1-3.47-.61,5.31,5.31,0,0,1-2.25-1.74A6.93,6.93,0,0,1,6,24.85a17.59,17.59,0,0,1-.35-3.75V13.64H0V9.24H10.92V21.79a4.44,4.44,0,0,0,.67,2.7,2.59,2.59,0,0,0,2.22.88,9.73,9.73,0,0,0,1.77-.19,10.25,10.25,0,0,0,2.33-.8ZM10.7,3.41a3.16,3.16,0,0,1-1,2.46,3.41,3.41,0,0,1-2.37.91A3.35,3.35,0,0,1,5,5.87,3.21,3.21,0,0,1,4,3.41,3.28,3.28,0,0,1,5,.91,3.31,3.31,0,0,1,7.34,0,3.37,3.37,0,0,1,9.71.91,3.22,3.22,0,0,1,10.7,3.41Z"/><path class="cls-3" d="M17.8,29.51,12.29,9.24H18l3.14,13.62h.18L24.58,9.24h5.58l3.33,13.54h.16L36.74,9.24h5.68l-5.5,20.27H31L27.48,16.77h-.25L23.74,29.51Z"/><path class="cls-3" d="M53.22,9.24v4.23H41V9.24ZM43.78,4.39H49.4V23.28a2.52,2.52,0,0,0,.24,1.21,1.26,1.26,0,0,0,.67.6,2.5,2.5,0,0,0,1,.17,4.15,4.15,0,0,0,.79-.07l.61-.11.88,4.18c-.28.09-.67.19-1.18.31a9.3,9.3,0,0,1-1.86.22A8.61,8.61,0,0,1,47,29.25a4.93,4.93,0,0,1-2.37-1.93A5.89,5.89,0,0,1,43.78,24Z"/><rect class="cls-2" x="67.99" y="4.38" width="0.41" height="25.18"/></g></g></svg>